<?xml version="1.0" standalone="no"?><!DOCTYPE svg PUBLIC "-//W3C//DTD SVG 1.1//EN" "http://www.w3.org/Graphics/SVG/1.1/DTD/svg11.dtd"><svg t="1610022921268" class="icon" viewBox="0 0 1024 1024" version="1.1" xmlns="http://www.w3.org/2000/svg" p-id="4894" width="48" height="48" xmlns:xlink="http://www.w3.org/1999/xlink"><defs><style type="text/css"></style></defs><path d="M158.208 158.496h707.584c20.32 0 36.608 16.32 36.608 36.608v288.704c-36.608-28.48-105.696-73.216-158.592-73.216-77.312 0-146.4 178.88-231.808 178.88-65.088-4.064-154.496-77.28-256.192-65.088-40.704 8.128-97.6 73.216-134.208 122.016V195.104c0-20.416 16.32-36.608 36.608-36.608z m170.784 292.8c-32.48 0-60.992-12.192-81.28-32.48-20.32-20.32-32.512-52.928-32.512-81.312 0-28.48 12.192-60.992 32.512-81.28 20.288-20.32 48.8-32.512 81.28-32.512 28.48 0 56.896 12.16 81.28 32.48 20.32 20.32 32.544 52.896 32.544 81.28 0 28.544-12.224 61.024-32.512 81.344-24.416 20.288-52.8 32.48-81.28 32.48zM886.112 105.6H137.888a72.864 72.864 0 0 0-73.184 73.216v666.88a72.864 72.864 0 0 0 73.184 73.216h748.32a72.864 72.864 0 0 0 73.184-73.216V178.816a72.992 72.992 0 0 0-73.28-73.216z" fill="#dbdbdb" p-id="4895"></path></svg>